<?xml version="1.0" encoding="UTF-8" standalone="no"?>
<!-- Created with Inkscape (http://www.inkscape.org/) -->
<svg xmlns:dc="http://purl.org/dc/elements/1.1/" xmlns:cc="http://creativecommons.org/ns#" xmlns:rdf="http://www.w3.org/1999/02/22-rdf-syntax-ns#" xmlns:svg="http://www.w3.org/2000/svg" xmlns="http://www.w3.org/2000/svg" version="1.0" width="500" height="500" id="svg2">
  <metadata id="metadata7">
    <rdf:RDF>
      <cc:Work rdf:about="">
        <dc:format>image/svg+xml</dc:format>
        <dc:type rdf:resource="http://purl.org/dc/dcmitype/StillImage"/>
        <dc:title/>
      </cc:Work>
    </rdf:RDF>
  </metadata>
  <defs id="defs5"/>
  <g id="g3013">
    <path d="M 72.430324,426.80336 0,353.60672 0,249.87117 0,146.13561 73.062534,73.067807 146.12504,0 249.35846,0 352.59188,0 426.29594,72.937657 500,145.87532 l 0,103.99982 0,103.99982 -73.06781,73.06251 -73.0678,73.06253 -104.50188,0 -104.50189,0 z m 341.393746,-13.74593 66.82766,-67.5943 0,-95.46504 0,-95.46506 -67.33491,-68.101543 -67.33491,-68.101547 -95.84963,0 -95.84963,0 -67.976356,67.970667 -67.976354,67.970673 0,95.72302 0,95.72301 67.461494,67.46721 67.461476,67.46721 96.87175,0 96.87176,0 z M 91.901314,408.09279 26.47658,342.66215 l 0,-92.7946 0,-92.79461 66.064914,-65.298183 66.064916,-65.298177 91.39359,0 91.39359,0 66.06492,65.298177 66.06491,65.298183 0,92.79461 0,92.7946 -65.42473,65.43064 -65.42475,65.43063 -92.67394,0 -92.67394,0 z m 311.099726,-5.08566 63.39407,-63.38799 0,-89.61305 0,-89.61307 -63.38798,-63.394063 -63.38799,-63.394067 -90.12833,0 -90.12834,0 -62.870586,62.881867 -62.870594,62.881883 -0.02993,90.60658 -0.02991,90.60658 62.900514,62.90666 62.900506,62.90665 90.12226,0 90.12225,0 z" id="path1308" style="fill:#000000"/>
    <path d="m 416.61721,363.70867 c -3.56284,-0.81244 -7.67812,-3.19733 -10.28614,-4.91764 -32.37319,-21.35423 -44.04009,-58.46828 -74.38975,-75.40455 -8.25127,-4.6045 -16.67769,-6.04642 -27.37738,-6.06322 -10.69969,-0.017 -23.14551,1.50831 -33.95396,-8.70858 -3.1464,-2.97423 -4.02757,-3.30987 -7.57536,-2.88546 -4.59308,0.54944 -23.08891,-1.37023 -26.51264,-2.75171 -1.48798,-0.6004 -5.75804,-0.43851 -12.23083,0.46369 -10.32491,1.43917 -10.80688,1.67377 -17.20825,8.3761 -2.46155,2.57727 -3.36763,3.02875 -4.0035,1.99481 -0.78589,-1.2779 -0.54066,-3.78836 0.70717,-7.23944 0.44724,-1.23694 0.18154,-1.44041 -1.17074,-0.89651 -0.9621,0.38694 -2.30812,1.2897 -2.99116,2.00609 -0.68302,0.71641 -1.80077,1.30257 -2.48388,1.30257 -0.68311,0 -1.49574,0.70169 -1.80583,1.55931 -0.9732,2.69157 -2.68433,0.39686 -2.08311,-2.79355 0.49908,-2.64838 0.34345,-2.92619 -1.3725,-2.44994 -2.91487,0.80895 -3.35128,-2.00254 -0.7646,-4.92563 l 2.23344,-2.52393 -2.59506,0.69083 c -2.16275,0.57573 -2.49605,0.41696 -2.00066,-0.95311 0.32692,-0.90418 1.80879,-2.31041 3.29305,-3.125 1.48425,-0.81458 2.59599,-2.01167 2.47054,-2.6602 -0.12545,-0.64853 1.51685,-1.83997 3.64957,-2.64765 l 3.87764,-1.46851 4.58052,2.04949 c 4.92984,2.20581 11.62897,3.78368 11.62897,2.73901 0,-0.35248 -2.01722,-2.5657 -4.48272,-4.91826 -2.46551,-2.35255 -5.06509,-5.43224 -5.77687,-6.84372 l -1.29413,-2.56633 -10.99706,-0.008 c -6.04838,-0.005 -12.15319,-0.47483 -13.56624,-1.04499 -2.08366,-0.84077 -3.57581,-0.58325 -7.89571,1.3626 -2.92959,1.31962 -8.00869,3.60123 -11.28691,5.07029 -5.48595,2.45842 -13.88554,8.35173 -15.31487,10.74522 -0.77203,1.29279 -2.68952,0.0517 -2.68952,-1.74086 0,-1.01385 -0.86309,-1.22589 -3.28928,-0.80804 l -3.28928,0.56649 0,-2.5306 c 0,-2.03959 -0.36473,-2.42941 -1.87959,-2.00899 -2.14338,0.59487 -2.31156,0.0172 -0.84277,-2.89561 0.76049,-1.50809 0.75458,-2.24119 -0.0222,-2.7507 -2.18871,-1.4356 2.58394,-4.16498 8.95828,-5.12302 6.08162,-0.91439 10.70256,-2.97322 10.70256,-4.76879 0,-1.20673 -3.25218,-4.1212 -4.59875,-4.1212 -0.6388,0 -3.14295,0.86053 -5.56478,1.91231 -6.34305,2.75472 -12.39155,3.53102 -12.39155,1.59039 0,-1.01049 -0.93,-1.50789 -2.81937,-1.50789 -1.8796,0 -2.81939,-0.4987 -2.81939,-1.4961 0,-0.82285 -0.42292,-1.49609 -0.9398,-1.49609 -1.81962,0 -0.8921,-1.52128 2.36107,-3.87257 2.01131,-1.45371 5.33006,-2.61554 8.54716,-2.9922 l 5.25912,-0.61572 -3.77091,-4.54047 c -5.49696,-6.61873 -10.41704,-9.84295 -18.28381,-11.98175 -3.83507,-1.04266 -9.25991,-3.00409 -12.05522,-4.35873 -2.79532,-1.35464 -7.40839,-2.90528 -10.251268,-3.44589 -2.84288,-0.5406 -6.860505,-1.45234 -8.928054,-2.02608 -2.067549,-0.57374 -4.914425,-1.28134 -6.326382,-1.57246 -1.411957,-0.29113 -3.950805,-1.7571 -5.641864,-3.25774 -1.691066,-1.50064 -3.919087,-3.22539 -4.951159,-3.83275 -3.747687,-2.20548 -2.815269,-4.42351 5.30005,-12.60764 11.039557,-11.13318 19.925311,-17.17913 30.060957,-20.4538 6.4914,-2.09727 8.34256,-3.09621 8.34256,-4.50186 0,-2.43797 3.12919,-8.79485 5.40403,-10.97814 2.20496,-2.11624 3.01256,-1.37303 5.63848,5.1889 l 1.7279,4.31789 2.7778,-3.18842 c 6.11879,-7.02328 15.10032,-9.20649 19.133,-4.6508 1.1638,1.31474 2.63395,4.54527 3.26702,7.17896 l 1.15101,4.78851 5.95447,3.86478 c 3.27497,2.12562 6.63624,3.86289 7.46949,3.86057 0.83327,-0.002 3.86721,-0.9094 6.74211,-2.01578 18.66932,-7.18476 55.50318,-3.61912 76.06564,7.36336 18.00471,9.61639 28.14242,22.97896 33.04583,43.55781 1.67056,7.01109 1.88475,10.25225 1.50037,22.70389 -0.2861,9.26794 -1.05369,16.98587 -2.1208,21.32376 l -1.67241,6.79855 c 0,0 1.28705,1.66762 4.49032,5.8181 3.20329,4.15046 10.1323,4.91304 21.6718,4.75107 11.5395,-0.16198 21.1521,3.23435 30.02243,8.99329 24.00634,15.58585 35.73088,46.65433 57.41678,65.6896 9.26102,8.12904 12.68796,13.43903 30.56359,20.29783 2.06174,0.79109 3.93608,1.05944 3.93608,1.53791 0,1.21367 -6.94853,0.93983 -13.38281,-0.52738 z" id="path2989" style="fill:#030303"/>
  </g>
</svg>